/vscmnt/brussel_pixiu_data/_data_brussel/112/vsc11236/PredSimResults/SUBJ09mtu3D/weighted-expIG/worker_01.mot
version=1
nRows=4
nColumns=50
inDegrees=yes
endheader
                time	         pelvis_tilt	         pelvis_list	     pelvis_rotation	           pelvis_tx	           pelvis_ty	           pelvis_tz	       hip_flexion_r	     hip_adduction_r	      hip_rotation_r	        knee_angle_r	       ankle_angle_r	         mtp_angle_r	       hip_flexion_l	     hip_adduction_l	      hip_rotation_l	        knee_angle_l	       ankle_angle_l	         mtp_angle_l	    lumbar_extension	      lumbar_bending	     lumbar_rotation	 ercspn_r/activation	 intobl_r/activation	 extobl_r/activation	    abd_r/activation	    add_r/activation	hamstrings_r/activation	bifemsh_r/activation	glut_max_r/activation	iliopsoas_r/activation	rect_fem_r/activation	  vasti_r/activation	gastroc_r/activation	 soleus_r/activation	tib_ant_r/activation	 ercspn_l/activation	 intobl_l/activation	 extobl_l/activation	    abd_l/activation	    add_l/activation	hamstrings_l/activation	bifemsh_l/activation	glut_max_l/activation	iliopsoas_l/activation	rect_fem_l/activation	  vasti_l/activation	gastroc_l/activation	 soleus_l/activation	tib_ant_l/activation	
          1.27203956	         -7.71151056	         -4.76896629	          7.25786365	          1.51372707	          0.98158044	         -0.01129587	         31.23378592	          1.75020677	         -4.85167365	         -2.06342838	          6.51105627	          0.21296503	        -10.67758066	         -5.08401384	          4.72915812	         -7.23632845	         10.38249139	         27.96646563	         -0.43328607	          3.21656803	         -3.72903142	          0.09303922	          0.13582544	          0.03249612	          0.02047049	          0.07178248	          0.11616194	          0.23275112	          0.01055215	          0.10571454	          0.00999999	          0.00999999	          0.01188138	          0.00999999	          0.26724110	          0.04380353	          0.00999999	          0.00999999	          0.05166974	          0.00999999	          0.01880018	          0.12565011	          0.03841797	          0.44335755	          0.01212005	          0.01211526	          0.31477923	          0.27305475	          0.01468959	
          1.28475995	         -7.79750043	         -4.70343559	          7.27507484	          1.53202278	          0.97955095	         -0.01109175	         31.22591031	          1.83663647	         -4.72531279	         -3.57061519	          6.06838920	          0.21635501	        -10.82119601	         -5.04254494	          4.38338423	         -8.77693315	          9.64707744	         30.01016893	         -0.13413206	          3.52676464	         -3.84678410	          0.07676461	          0.11206658	          0.02681183	          0.01688975	          0.09377954	          0.09975245	          0.19203783	          0.07366998	          0.08722274	          0.00999999	          0.00999999	          0.02250032	          0.01579711	          0.28010789	          0.08066211	          0.00999999	          0.00999999	          0.04263157	          0.02614430	          0.02033573	          0.10367114	          0.03169783	          0.43693283	          0.00999999	          0.01892893	          0.28760955	          0.25421896	          0.01212005	
          1.29748035	         -7.86327831	         -4.63653085	          7.24342805	          1.55069846	          0.97777449	         -0.01081247	         31.05224476	          1.91539631	         -4.59568407	         -5.03401334	          5.58758440	          0.20302133	        -10.83483200	         -4.99153963	          4.00815209	        -10.61480448	          8.74092876	         32.09356839	          0.18327089	          3.84668019	         -3.93461694	          0.06573257	          0.09246367	          0.02212185	          0.07636363	          0.07919624	          0.08710352	          0.15844619	          0.11554232	          0.07196557	          0.00999999	          0.00999999	          0.01856452	          0.01303384	          0.33307183	          0.07840351	          0.00999999	          0.00999999	          0.03517437	          0.02157109	          0.01677857	          0.08553678	          0.02615318	          0.41936599	          0.01000006	          0.01780387	          0.24114908	          0.21837986	          0.00999999	
          1.31020074	         -7.91196809	         -4.56390504	          7.16403266	          1.56940209	          0.97651080	         -0.01044378	         30.75945406	          2.00605601	         -4.48614904	         -6.27554790	          4.93221836	          0.17972349	        -10.60153604	         -4.92173103	          3.61860541	        -12.90680691	          7.64373754	         34.13327473	          0.48177829	          4.16983497	         -3.98808912	          0.06905942	          0.07628974	          0.01825225	          0.13127618	          0.10460850	          0.07255307	          0.13073047	          0.16403958	          0.05937721	          0.00999999	          0.00999999	          0.01531718	          0.01075394	          0.36643048	          0.11734899	          0.00999999	          0.00999999	          0.02902160	          0.03061681	          0.01676402	          0.07057452	          0.02157841	          0.39824279	          0.00999999	          0.01468959	          0.19896681	          0.18018042	          0.00999999	
